# xmcd
#
# Track frame offsets: 
#        150
#        21104
#        36493
#        55906
#        75542
#        91687
#        118722
#        137779
#        153444
#        165957
#        183182
#        198602
#        215314
#
# Disc length: 3081 seconds
#
# Revision: 2
# Processed by: cddbd v1.5.2PL0 Copyright (c) Steve Scherf et al.
# Submitted via: ExactAudioCopy v0.99pb5
#
DISCID=a40c070d
DTITLE=周啟生 - 淺草妖姬精選十三首
DYEAR=1989
DGENRE=Blues
TTITLE0=淺草妖姬
TTITLE1=天長地久
TTITLE2=Anna
TTITLE3=躲藏的眼睛
TTITLE4=離鄉別井
TTITLE5=The Model
TTITLE6=習慣與你一起
TTITLE7=午夜突破（無線卡通片集《我要衝線》主題曲）
TTITLE8=I Love You So
TTITLE9=又是下雨天
TTITLE10=獨醉之後
TTITLE11=不能替代你
TTITLE12=天使魔鬼混合體
EXTD=
EXTT0=Ё翌毦憫
EXTT1=
EXTT2=
EXTT3=
EXTT4=
EXTT5=
EXTT6=
EXTT7=
EXTT8=
EXTT9=
EXTT10=
EXTT11=
EXTT12=
PLAYORDER=
